<?xml version="1.0" encoding="UTF-8"?>
<svg xmlns="http://www.w3.org/2000/svg" version="1.1" viewBox="0 0 495.95 510.36">
  <defs>
    <style>
      .cls-1 {
        fill: #fff;
      }

      .cls-1, .cls-2 {
        stroke: #231f20;
        stroke-miterlimit: 10;
      }

      .cls-2 {
        fill: #662d91;
      }
    </style>
  </defs>
  <!-- Generator: Adobe Illustrator 28.7.1, SVG Export Plug-In . SVG Version: 1.2.0 Build 142)  -->
  <g>
    <g id="Layer_1">
      <polygon class="cls-2" points="473.57 431.96 293.3 359.73 168.9 508.86 181.89 315.09 1.61 242.86 189.91 195.34 202.89 1.57 306.28 165.96 494.58 118.43 370.18 267.56 473.57 431.96"/>
      <polygon class="cls-1" points="454.23 416.48 291.04 351.1 178.43 486.1 190.18 310.69 26.99 245.31 197.45 202.28 209.2 26.88 302.8 175.69 473.25 132.67 360.64 267.67 454.23 416.48"/>
      <polygon class="cls-2" points="439.64 402.61 290.19 342.73 187.06 466.36 197.83 305.72 48.38 245.84 204.48 206.44 215.25 45.8 300.96 182.09 457.06 142.69 353.93 266.32 439.64 402.61"/>
      <polygon class="cls-1" points="416.57 384.11 286.97 332.19 197.53 439.4 206.87 300.1 77.27 248.17 212.64 214 221.97 74.69 296.3 192.88 431.68 158.71 342.24 265.93 416.57 384.11"/>
      <polygon class="cls-2" points="399.13 367.46 286.75 322.44 209.2 415.4 217.29 294.61 104.92 249.58 222.3 219.96 230.39 99.16 294.84 201.64 412.23 172.02 334.68 264.98 399.13 367.46"/>
      <polygon class="cls-1" points="384.5 354.3 286.09 314.87 218.17 396.28 225.26 290.5 126.84 251.07 229.64 225.12 236.73 119.33 293.17 209.08 395.97 183.14 328.06 264.55 384.5 354.3"/>
      <polygon class="cls-2" points="359.56 332.58 283.44 302.09 230.92 365.06 236.4 283.24 160.28 252.74 239.79 232.67 245.27 150.85 288.93 220.27 368.43 200.2 315.91 263.17 359.56 332.58"/>
      <polygon class="cls-1" points="340.78 317.59 281.53 293.86 240.65 342.87 244.92 279.19 185.67 255.45 247.56 239.83 251.82 176.15 285.8 230.18 347.68 214.56 306.8 263.57 340.78 317.59"/>
      <polygon class="cls-2" points="320.44 300.13 278.91 283.5 250.26 317.85 253.25 273.21 211.73 256.58 255.1 245.63 258.09 201 281.91 238.87 325.28 227.92 296.62 262.27 320.44 300.13"/>
      <polygon class="cls-1" points="305.54 287.23 277.62 276.04 258.35 299.14 260.36 269.12 232.43 257.93 261.6 250.57 263.61 220.55 279.63 246.02 308.8 238.66 289.53 261.76 305.54 287.23"/>
    </g>
  </g>
</svg>